<?xml version="1.0" encoding="UTF-8"?>
<svg width="14px" height="10px" viewBox="0 0 14 10" version="1.1" xmlns="http://www.w3.org/2000/svg" xmlns:xlink="http://www.w3.org/1999/xlink">
    <!-- Generator: Sketch 40.2 (33826) - http://www.bohemiancoding.com/sketch -->
    <title>menu</title>
    <desc>Created with Sketch.</desc>
    <defs></defs>
    <g id="Page-1" stroke="none" stroke-width="1" fill="none" fill-rule="evenodd">
        <g id="menu" fill="#F5F7FA">
            <path d="M13.4,4 L0.6,4 C0.048,4 0,4.447 0,5 C0,5.553 0.048,6 0.6,6 L13.4,6 C13.952,6 14,5.553 14,5 C14,4.447 13.952,4 13.4,4 L13.4,4 Z M13.4,8 L0.6,8 C0.048,8 0,8.447 0,9 C0,9.553 0.048,10 0.6,10 L13.4,10 C13.952,10 14,9.553 14,9 C14,8.447 13.952,8 13.4,8 L13.4,8 Z M0.6,2 L13.4,2 C13.952,2 14,1.553 14,1 C14,0.447 13.952,0 13.4,0 L0.6,0 C0.048,0 0,0.447 0,1 C0,1.553 0.048,2 0.6,2 L0.6,2 Z" id="Shape"></path>
        </g>
    </g>
</svg>